<?xml version="1.0" encoding="utf-8"?>
<!-- Generator: Adobe Illustrator 26.2.1, SVG Export Plug-In . SVG Version: 6.00 Build 0)  -->
<svg version="1.1" id="Layer_1" xmlns="http://www.w3.org/2000/svg" xmlns:xlink="http://www.w3.org/1999/xlink" x="0px" y="0px"
	 viewBox="0 0 24 24" style="enable-background:new 0 0 24 24;" xml:space="preserve">
<style type="text/css">
	.st0{fill:#FFFFFF;}
	.st1{fill:#4285F4;}
	.st2{fill:#34A853;}
	.st3{fill:#FBBC05;}
	.st4{fill:#EA4335;}
</style>
<g>
	<circle class="st0" cx="12" cy="12" r="11.9"/>
	<g transform="matrix(1, 0, 0, 1, 27.009001, -39.238998)">
		<path class="st1" d="M-6.2,51.4c0-0.6-0.1-1.2-0.1-1.7h-8.5v3.4h4.9c-0.2,1.1-0.9,2.1-1.8,2.7v2.3h2.9
			C-7.1,56.5-6.2,54.2-6.2,51.4z"/>
		<path class="st2" d="M-14.8,60.3c2.4,0,4.5-0.8,6-2.2l-2.9-2.3c-0.8,0.5-1.8,0.9-3.1,0.9c-2.4,0-4.3-1.6-5.1-3.7h-3v2.3
			C-21.4,58.2-18.3,60.3-14.8,60.3z"/>
		<path class="st3" d="M-19.9,53c-0.2-0.5-0.3-1.1-0.3-1.7s0.1-1.2,0.3-1.7v-2.3h-3c-0.6,1.2-1,2.6-1,4c0,1.5,0.4,2.8,1,4L-19.9,53z
			"/>
		<path class="st4" d="M-14.8,45.8c1.3,0,2.5,0.5,3.5,1.4l2.6-2.6c-1.6-1.5-3.6-2.4-6-2.4c-3.5,0-6.6,2-8.1,5l3,2.3
			C-19.2,47.4-17.2,45.8-14.8,45.8z"/>
	</g>
</g>
</svg>
